<svg width="22" height="25" viewBox="0 0 22 25" fill="none" xmlns="http://www.w3.org/2000/svg">
<path d="M11.2887 2.17666C12.2752 2.17666 13.2214 2.57674 13.919 3.28888C14.6166 4.00103 15.0085 4.9669 15.0085 5.97403V6.7335H7.56881V5.97403C7.56881 4.9669 7.96072 4.00103 8.65833 3.28888C9.35594 2.57674 10.3021 2.17666 11.2887 2.17666ZM16.4965 6.7335V5.97403C16.4965 4.56405 15.9478 3.21183 14.9712 2.21483C13.9945 1.21782 12.6699 0.657715 11.2887 0.657715C9.90748 0.657715 8.58285 1.21782 7.6062 2.21483C6.62954 3.21183 6.08086 4.56405 6.08086 5.97403V6.7335H0.873047V21.923C0.873047 22.7287 1.18658 23.5014 1.74467 24.0711C2.30275 24.6408 3.05968 24.9609 3.84894 24.9609H18.7284C19.5177 24.9609 20.2746 24.6408 20.8327 24.0711C21.3908 23.5014 21.7043 22.7287 21.7043 21.923V6.7335H16.4965ZM2.36099 8.25245H20.2164V21.923C20.2164 22.3258 20.0596 22.7122 19.7805 22.997C19.5015 23.2819 19.123 23.4419 18.7284 23.4419H3.84894C3.45431 23.4419 3.07585 23.2819 2.7968 22.997C2.51776 22.7122 2.36099 22.3258 2.36099 21.923V8.25245Z" fill="#333333"/>
</svg>
