<svg width="11" height="13" viewBox="0 0 11 13" fill="none" xmlns="http://www.w3.org/2000/svg">
<mask id="path-1-inside-1_1_5275" fill="white">
<path d="M5.50006 8.30546e-09C6.02807 -4.72324e-05 6.53598 0.201433 6.91918 0.562936C7.30238 0.92444 7.53168 1.41843 7.55984 1.94316L7.56259 2.05263H10.5876C10.6921 2.05266 10.7927 2.09218 10.8691 2.16318C10.9455 2.23419 10.9919 2.33141 10.999 2.43518C11.0062 2.53895 10.9734 2.64154 10.9075 2.72223C10.8415 2.80291 10.7473 2.85567 10.6437 2.86985L10.5876 2.87368H10.0052L9.33416 11.1132C9.29229 11.6272 9.05753 12.1067 8.67659 12.4563C8.29564 12.8059 7.79642 13 7.27823 13H3.72189C3.2037 13 2.70448 12.8059 2.32354 12.4563C1.94259 12.1067 1.70784 11.6272 1.66597 11.1132L0.994411 2.87368H0.412505C0.312823 2.87368 0.216514 2.83775 0.14139 2.77255C0.0662653 2.70734 0.0174068 2.61727 0.00385003 2.51899L0 2.46316C4.20364e-06 2.36395 0.036104 2.26811 0.101623 2.19334C0.167142 2.11858 0.257648 2.06995 0.356404 2.05646L0.412505 2.05263H3.43754C3.43754 1.50824 3.65484 0.986145 4.04164 0.601202C4.42844 0.216259 4.95305 8.30546e-09 5.50006 8.30546e-09ZM9.17795 2.87368H1.82217L2.48823 11.047C2.51338 11.3554 2.65426 11.6431 2.88285 11.8528C3.11143 12.0626 3.41098 12.179 3.72189 12.1789H7.27823C7.58915 12.179 7.88869 12.0626 8.11728 11.8528C8.34587 11.6431 8.48675 11.3554 8.5119 11.047L9.17795 2.87368ZM4.26255 4.92632C4.36223 4.92632 4.45854 4.96225 4.53366 5.02745C4.60879 5.09266 4.65765 5.18273 4.6712 5.28101L4.67505 5.33684V9.71579C4.67502 9.8198 4.63532 9.91992 4.56397 9.99593C4.49262 10.0719 4.39494 10.1181 4.29066 10.1252C4.18639 10.1323 4.08331 10.0998 4.00223 10.0341C3.92116 9.96848 3.86814 9.87466 3.85389 9.77162L3.85004 9.71579V5.33684C3.85004 5.22796 3.8935 5.12354 3.97086 5.04656C4.04822 4.96957 4.15315 4.92632 4.26255 4.92632ZM6.73758 4.92632C6.83726 4.92632 6.93357 4.96225 7.00869 5.02745C7.08382 5.09266 7.13267 5.18273 7.14623 5.28101L7.15008 5.33684V9.71579C7.15005 9.8198 7.11035 9.91992 7.039 9.99593C6.96764 10.0719 6.86996 10.1181 6.76569 10.1252C6.66142 10.1323 6.55833 10.0998 6.47726 10.0341C6.39618 9.96848 6.34317 9.87466 6.32892 9.77162L6.32507 9.71579V5.33684C6.32507 5.22796 6.36853 5.12354 6.44589 5.04656C6.52325 4.96957 6.62817 4.92632 6.73758 4.92632ZM5.50006 0.821053C5.18649 0.821014 4.88459 0.939446 4.65539 1.15241C4.42618 1.36538 4.28676 1.657 4.2653 1.96834L4.26255 2.05263H6.73758L6.73483 1.96834C6.71337 1.657 6.57394 1.36538 6.34474 1.15241C6.11553 0.939446 5.81364 0.821014 5.50006 0.821053Z"/>
</mask>
<path d="M5.50006 8.30546e-09C6.02807 -4.72324e-05 6.53598 0.201433 6.91918 0.562936C7.30238 0.92444 7.53168 1.41843 7.55984 1.94316L7.56259 2.05263H10.5876C10.6921 2.05266 10.7927 2.09218 10.8691 2.16318C10.9455 2.23419 10.9919 2.33141 10.999 2.43518C11.0062 2.53895 10.9734 2.64154 10.9075 2.72223C10.8415 2.80291 10.7473 2.85567 10.6437 2.86985L10.5876 2.87368H10.0052L9.33416 11.1132C9.29229 11.6272 9.05753 12.1067 8.67659 12.4563C8.29564 12.8059 7.79642 13 7.27823 13H3.72189C3.2037 13 2.70448 12.8059 2.32354 12.4563C1.94259 12.1067 1.70784 11.6272 1.66597 11.1132L0.994411 2.87368H0.412505C0.312823 2.87368 0.216514 2.83775 0.14139 2.77255C0.0662653 2.70734 0.0174068 2.61727 0.00385003 2.51899L0 2.46316C4.20364e-06 2.36395 0.036104 2.26811 0.101623 2.19334C0.167142 2.11858 0.257648 2.06995 0.356404 2.05646L0.412505 2.05263H3.43754C3.43754 1.50824 3.65484 0.986145 4.04164 0.601202C4.42844 0.216259 4.95305 8.30546e-09 5.50006 8.30546e-09ZM9.17795 2.87368H1.82217L2.48823 11.047C2.51338 11.3554 2.65426 11.6431 2.88285 11.8528C3.11143 12.0626 3.41098 12.179 3.72189 12.1789H7.27823C7.58915 12.179 7.88869 12.0626 8.11728 11.8528C8.34587 11.6431 8.48675 11.3554 8.5119 11.047L9.17795 2.87368ZM4.26255 4.92632C4.36223 4.92632 4.45854 4.96225 4.53366 5.02745C4.60879 5.09266 4.65765 5.18273 4.6712 5.28101L4.67505 5.33684V9.71579C4.67502 9.8198 4.63532 9.91992 4.56397 9.99593C4.49262 10.0719 4.39494 10.1181 4.29066 10.1252C4.18639 10.1323 4.08331 10.0998 4.00223 10.0341C3.92116 9.96848 3.86814 9.87466 3.85389 9.77162L3.85004 9.71579V5.33684C3.85004 5.22796 3.8935 5.12354 3.97086 5.04656C4.04822 4.96957 4.15315 4.92632 4.26255 4.92632ZM6.73758 4.92632C6.83726 4.92632 6.93357 4.96225 7.00869 5.02745C7.08382 5.09266 7.13267 5.18273 7.14623 5.28101L7.15008 5.33684V9.71579C7.15005 9.8198 7.11035 9.91992 7.039 9.99593C6.96764 10.0719 6.86996 10.1181 6.76569 10.1252C6.66142 10.1323 6.55833 10.0998 6.47726 10.0341C6.39618 9.96848 6.34317 9.87466 6.32892 9.77162L6.32507 9.71579V5.33684C6.32507 5.22796 6.36853 5.12354 6.44589 5.04656C6.52325 4.96957 6.62817 4.92632 6.73758 4.92632ZM5.50006 0.821053C5.18649 0.821014 4.88459 0.939446 4.65539 1.15241C4.42618 1.36538 4.28676 1.657 4.2653 1.96834L4.26255 2.05263H6.73758L6.73483 1.96834C6.71337 1.657 6.57394 1.36538 6.34474 1.15241C6.11553 0.939446 5.81364 0.821014 5.50006 0.821053Z" fill="#333333"/>
<path d="M5.50006 8.30546e-09L5.50006 1H5.50015L5.50006 8.30546e-09ZM7.55984 1.94316L8.55952 1.91805L8.55916 1.9038L8.5584 1.88957L7.55984 1.94316ZM7.56259 2.05263L6.5629 2.07774L6.58739 3.05263H7.56259V2.05263ZM10.5876 2.05263L10.5879 1.05263H10.5876V2.05263ZM10.6437 2.86985L10.7119 3.86753L10.7457 3.86521L10.7794 3.86061L10.6437 2.86985ZM10.5876 2.87368V3.87368H10.6217L10.6558 3.87136L10.5876 2.87368ZM10.0052 2.87368V1.87368H9.08329L9.00846 2.79252L10.0052 2.87368ZM9.33416 11.1132L10.3309 11.1944L10.3309 11.1944L9.33416 11.1132ZM7.27823 13L7.2783 12H7.27823V13ZM3.72189 13V12H3.72182L3.72189 13ZM1.66597 11.1132L2.66267 11.032L2.66266 11.032L1.66597 11.1132ZM0.994411 2.87368L1.99111 2.79245L1.91622 1.87368H0.994411V2.87368ZM0.412505 2.87368L0.412463 3.87368H0.412505V2.87368ZM0.00385003 2.51899L-0.993781 2.58778L-0.991433 2.62183L-0.98677 2.65563L0.00385003 2.51899ZM0 2.46316L-1 2.46312L-1 2.49757L-0.997631 2.53195L0 2.46316ZM0.356404 2.05646L0.288265 1.05879L0.254538 1.06109L0.221044 1.06567L0.356404 2.05646ZM0.412505 2.05263V1.05263H0.378395L0.344366 1.05496L0.412505 2.05263ZM3.43754 2.05263V3.05263H4.43754V2.05263H3.43754ZM9.17795 2.87368L10.1747 2.95491L10.2628 1.87368H9.17795V2.87368ZM1.82217 2.87368V1.87368H0.737364L0.825475 2.95491L1.82217 2.87368ZM2.48823 11.047L1.49153 11.1282L1.49154 11.1283L2.48823 11.047ZM3.72189 12.1789V11.1789H3.72173L3.72189 12.1789ZM7.27823 12.1789L7.2784 11.1789H7.27823V12.1789ZM8.5119 11.047L9.50859 11.1283L9.50859 11.1282L8.5119 11.047ZM4.26255 4.92632L4.26259 3.92632H4.26255V4.92632ZM4.6712 5.28101L5.66883 5.21222L5.66649 5.17817L5.66182 5.14437L4.6712 5.28101ZM4.67505 5.33684H5.67505V5.3024L5.67268 5.26805L4.67505 5.33684ZM4.67505 9.71579L5.67505 9.7161V9.71579H4.67505ZM3.85389 9.77162L2.85626 9.84042L2.85862 9.87461L2.86332 9.90857L3.85389 9.77162ZM3.85004 9.71579H2.85004V9.75023L2.85241 9.78458L3.85004 9.71579ZM6.73758 4.92632L6.73762 3.92632H6.73758V4.92632ZM7.14623 5.28101L8.14386 5.21222L8.14151 5.17817L8.13685 5.14437L7.14623 5.28101ZM7.15008 5.33684H8.15008V5.3024L8.14771 5.26805L7.15008 5.33684ZM7.15008 9.71579L8.15008 9.7161V9.71579H7.15008ZM6.32892 9.77162L5.33129 9.84042L5.33365 9.87461L5.33834 9.90857L6.32892 9.77162ZM6.32507 9.71579H5.32507V9.75023L5.32744 9.78458L6.32507 9.71579ZM5.50006 0.821053L5.49994 1.82105L5.50019 1.82105L5.50006 0.821053ZM4.2653 1.96834L3.26767 1.89956L3.26642 1.91763L3.26583 1.93573L4.2653 1.96834ZM4.26255 2.05263L3.26308 2.02002L3.22939 3.05263H4.26255V2.05263ZM6.73758 2.05263V3.05263H7.77073L7.73705 2.02003L6.73758 2.05263ZM6.73483 1.96834L7.7343 1.93574L7.73371 1.91763L7.73246 1.89956L6.73483 1.96834ZM5.50015 1C5.77363 0.999976 6.03585 1.10438 6.23296 1.29033L7.6054 -0.164462C7.03612 -0.70151 6.2825 -1.00007 5.49997 -1L5.50015 1ZM6.23296 1.29033C6.42994 1.47616 6.54691 1.72912 6.56127 1.99675L8.5584 1.88957C8.51644 1.10775 8.17482 0.372722 7.6054 -0.164462L6.23296 1.29033ZM6.56015 1.96827L6.5629 2.07774L8.56227 2.02752L8.55952 1.91805L6.56015 1.96827ZM7.56259 3.05263H10.5876V1.05263H7.56259V3.05263ZM10.5873 3.05263C10.4399 3.05259 10.2972 2.9969 10.1882 2.89552L11.5501 1.43085C11.2883 1.18745 10.9443 1.05274 10.5879 1.05263L10.5873 3.05263ZM10.1882 2.89552C10.079 2.79401 10.0117 2.6541 10.0014 2.50366L11.9967 2.36669C11.9721 2.00871 11.812 1.67438 11.5501 1.43085L10.1882 2.89552ZM10.0014 2.50366C9.99106 2.3532 10.0386 2.20512 10.1332 2.08934L11.6817 3.35512C11.9083 3.07796 12.0213 2.72469 11.9967 2.36669L10.0014 2.50366ZM10.1332 2.08934C10.2278 1.9737 10.3619 1.89911 10.5081 1.8791L10.7794 3.86061C11.1326 3.81224 11.4553 3.63212 11.6817 3.35512L10.1332 2.08934ZM10.5756 1.87218L10.5195 1.87601L10.6558 3.87136L10.7119 3.86753L10.5756 1.87218ZM10.5876 1.87368H10.0052V3.87368H10.5876V1.87368ZM9.00846 2.79252L8.33746 11.0321L10.3309 11.1944L11.0019 2.95485L9.00846 2.79252ZM8.33746 11.032C8.3161 11.2942 8.1963 11.5398 8.00044 11.7196L9.35274 13.1931C9.91876 12.6736 10.2685 11.9602 10.3309 11.1944L8.33746 11.032ZM8.00044 11.7196C7.80444 11.8995 7.54669 12 7.2783 12L7.27816 14C8.04616 14.0001 8.78684 13.7124 9.35274 13.1931L8.00044 11.7196ZM7.27823 12H3.72189V14H7.27823V12ZM3.72182 12C3.45343 12 3.19568 11.8995 2.99969 11.7196L1.64739 13.1931C2.21328 13.7124 2.95397 14.0001 3.72196 14L3.72182 12ZM2.99969 11.7196C2.80383 11.5398 2.68403 11.2942 2.66267 11.032L0.66927 11.1944C0.731652 11.9602 1.08136 12.6736 1.64739 13.1931L2.99969 11.7196ZM2.66266 11.032L1.99111 2.79245L-0.0022836 2.95492L0.669274 11.1945L2.66266 11.032ZM0.994411 1.87368H0.412505V3.87368H0.994411V1.87368ZM0.412547 1.87368C0.553146 1.87369 0.68971 1.92433 0.796877 2.01734L-0.514097 3.52776C-0.256681 3.75118 0.0725001 3.87367 0.412463 3.87368L0.412547 1.87368ZM0.796877 2.01734C0.904162 2.11046 0.974829 2.23995 0.99447 2.38235L-0.98677 2.65563C-0.940015 2.99459 -0.771631 3.30423 -0.514097 3.52776L0.796877 2.01734ZM1.00148 2.4502L0.997631 2.39436L-0.997631 2.53195L-0.993781 2.58778L1.00148 2.4502ZM1 2.4632C0.999994 2.60703 0.947618 2.74525 0.853699 2.85242L-0.650453 1.53427C-0.87541 1.79097 -0.999986 2.12088 -1 2.46312L1 2.4632ZM0.853699 2.85242C0.759885 2.95947 0.631148 3.02822 0.491764 3.04726L0.221044 1.06567C-0.115851 1.11169 -0.425601 1.27769 -0.650453 1.53427L0.853699 2.85242ZM0.424543 3.05414L0.480644 3.05031L0.344366 1.05496L0.288265 1.05879L0.424543 3.05414ZM0.412505 3.05263H3.43754V1.05263H0.412505V3.05263ZM4.43754 2.05263C4.43754 1.77501 4.54831 1.50779 4.74704 1.31001L3.33623 -0.107603C2.76137 0.464503 2.43754 1.24147 2.43754 2.05263H4.43754ZM4.74704 1.31001C4.94594 1.11206 5.21672 1 5.50006 1L5.50006 -1C4.68938 -1 3.91093 -0.679547 3.33623 -0.107603L4.74704 1.31001ZM9.17795 1.87368H1.82217V3.87368H9.17795V1.87368ZM0.825475 2.95491L1.49153 11.1282L3.48492 10.9658L2.81887 2.79246L0.825475 2.95491ZM1.49154 11.1283C1.53722 11.6885 1.79308 12.2101 2.20676 12.5897L3.55893 11.116C3.51544 11.0761 3.48953 11.0223 3.48492 10.9657L1.49154 11.1283ZM2.20676 12.5897C2.62032 12.9691 3.16134 13.179 3.72206 13.1789L3.72173 11.1789C3.66061 11.179 3.60255 11.156 3.55893 11.116L2.20676 12.5897ZM3.72189 13.1789H7.27823V11.1789H3.72189V13.1789ZM7.27807 13.1789C7.83879 13.179 8.37981 12.9691 8.79336 12.5897L7.4412 11.116C7.39758 11.156 7.33951 11.179 7.2784 11.1789L7.27807 13.1789ZM8.79336 12.5897C9.20705 12.2101 9.4629 11.6885 9.50859 11.1283L7.51521 10.9657C7.51059 11.0223 7.48468 11.0761 7.4412 11.116L8.79336 12.5897ZM9.50859 11.1282L10.1747 2.95491L8.18126 2.79246L7.5152 10.9658L9.50859 11.1282ZM4.26251 5.92632C4.12191 5.92631 3.98534 5.87568 3.87818 5.78266L5.18915 4.27224C4.93173 4.04882 4.60255 3.92633 4.26259 3.92632L4.26251 5.92632ZM3.87818 5.78266C3.77089 5.68954 3.70022 5.56005 3.68058 5.41765L5.66182 5.14437C5.61507 4.80541 5.44669 4.49577 5.18915 4.27224L3.87818 5.78266ZM3.67357 5.3498L3.67742 5.40564L5.67268 5.26805L5.66883 5.21222L3.67357 5.3498ZM3.67505 5.33684V9.71579H5.67505V5.33684H3.67505ZM3.67505 9.71548C3.6751 9.56466 3.73271 9.42034 3.8349 9.31148L5.29303 10.6804C5.53793 10.4195 5.67494 10.0749 5.67505 9.7161L3.67505 9.71548ZM3.8349 9.31148C3.93696 9.20277 4.07575 9.13754 4.22283 9.12754L4.3585 11.1229C4.71413 11.0988 5.04827 10.9411 5.29303 10.6804L3.8349 9.31148ZM4.22283 9.12754C4.36989 9.11754 4.51593 9.16337 4.63147 9.25691L3.37299 10.8113C3.65068 11.0362 4.0029 11.1471 4.3585 11.1229L4.22283 9.12754ZM4.63147 9.25691C4.74715 9.35057 4.82383 9.48537 4.84447 9.63467L2.86332 9.90857C2.91245 10.264 3.09516 10.5864 3.37299 10.8113L4.63147 9.25691ZM4.85152 9.70283L4.84767 9.64699L2.85241 9.78458L2.85626 9.84042L4.85152 9.70283ZM4.85004 9.71579V5.33684H2.85004V9.71579H4.85004ZM4.85004 5.33684C4.85004 5.49474 4.78697 5.64519 4.67627 5.75536L3.26546 4.33775C3.00004 4.6019 2.85004 4.96119 2.85004 5.33684H4.85004ZM4.67627 5.75536C4.56573 5.86537 4.41682 5.92632 4.26255 5.92632V3.92632C3.88947 3.92632 3.53072 4.07376 3.26546 4.33775L4.67627 5.75536ZM6.73753 5.92632C6.59694 5.92631 6.46037 5.87568 6.35321 5.78266L7.66418 4.27224C7.40676 4.04882 7.07758 3.92633 6.73762 3.92632L6.73753 5.92632ZM6.35321 5.78266C6.24592 5.68954 6.17525 5.56004 6.15561 5.41765L8.13685 5.14437C8.0901 4.80541 7.92172 4.49578 7.66418 4.27224L6.35321 5.78266ZM6.1486 5.3498L6.15245 5.40564L8.14771 5.26805L8.14386 5.21222L6.1486 5.3498ZM6.15008 5.33684V9.71579H8.15008V5.33684H6.15008ZM6.15008 9.71548C6.15013 9.56466 6.20774 9.42034 6.30993 9.31148L7.76806 10.6804C8.01295 10.4195 8.14997 10.0749 8.15008 9.7161L6.15008 9.71548ZM6.30993 9.31148C6.41199 9.20277 6.55077 9.13754 6.69786 9.12754L6.83353 11.1229C7.18916 11.0988 7.5233 10.9411 7.76806 10.6804L6.30993 9.31148ZM6.69786 9.12754C6.84491 9.11754 6.99096 9.16337 7.1065 9.25691L5.84802 10.8113C6.12571 11.0362 6.47793 11.1471 6.83353 11.1229L6.69786 9.12754ZM7.1065 9.25691C7.22218 9.35057 7.29886 9.48537 7.3195 9.63467L5.33834 9.90857C5.38748 10.264 5.57019 10.5864 5.84802 10.8113L7.1065 9.25691ZM7.32655 9.70283L7.3227 9.64699L5.32744 9.78458L5.33129 9.84042L7.32655 9.70283ZM7.32507 9.71579V5.33684H5.32507V9.71579H7.32507ZM7.32507 5.33684C7.32507 5.49474 7.262 5.64519 7.1513 5.75536L5.74049 4.33775C5.47506 4.6019 5.32507 4.96119 5.32507 5.33684H7.32507ZM7.1513 5.75536C7.04076 5.86537 6.89184 5.92632 6.73758 5.92632V3.92632C6.3645 3.92632 6.00575 4.07376 5.74049 4.33775L7.1513 5.75536ZM5.50019 -0.178947C4.93468 -0.179017 4.3894 0.0345236 3.97471 0.419831L5.33607 1.88499C5.37979 1.84437 5.4383 1.82105 5.49994 1.82105L5.50019 -0.178947ZM3.97471 0.419831C3.55988 0.805269 3.30665 1.334 3.26767 1.89956L5.26293 2.03711C5.26687 1.98 5.29248 1.92549 5.33607 1.88499L3.97471 0.419831ZM3.26583 1.93573L3.26308 2.02002L5.26202 2.08524L5.26477 2.00094L3.26583 1.93573ZM4.26255 3.05263H6.73758V1.05263H4.26255V3.05263ZM7.73705 2.02003L7.7343 1.93574L5.73536 2.00094L5.73811 2.08523L7.73705 2.02003ZM7.73246 1.89956C7.69347 1.334 7.44024 0.805268 7.02542 0.419831L5.66406 1.88499C5.70764 1.92549 5.73326 1.98 5.7372 2.03711L7.73246 1.89956ZM7.02542 0.419831C6.61073 0.0345236 6.06545 -0.179017 5.49994 -0.178947L5.50019 1.82105C5.56183 1.82105 5.62033 1.84437 5.66406 1.88499L7.02542 0.419831Z" fill="#333333" mask="url(#path-1-inside-1_1_5275)"/>
</svg>
