<svg width="28" height="35" viewBox="0 0 28 35" fill="none" xmlns="http://www.w3.org/2000/svg">
<path d="M13.125 33.7264H5.625V28.7264H6.875C7.04076 28.7264 7.19973 28.6605 7.31694 28.5433C7.43415 28.4261 7.5 28.2671 7.5 28.1014C7.5 27.9356 7.43415 27.7766 7.31694 27.6594C7.19973 27.5422 7.04076 27.4764 6.875 27.4764H5.625V26.8514C5.625 26.6856 5.55915 26.5266 5.44194 26.4094C5.32473 26.2922 5.16576 26.2264 5 26.2264C4.83424 26.2264 4.67527 26.2922 4.55806 26.4094C4.44085 26.5266 4.375 26.6856 4.375 26.8514V33.7264H1.25V26.4889C1.25165 25.0937 1.80663 23.7561 2.79318 22.7696C3.77973 21.783 5.11731 21.228 6.5125 21.2264H8.49375L10.625 23.3576V28.1014C10.625 28.2671 10.6908 28.4261 10.8081 28.5433C10.9253 28.6605 11.0842 28.7264 11.25 28.7264C11.4158 28.7264 11.5747 28.6605 11.6919 28.5433C11.8092 28.4261 11.875 28.2671 11.875 28.1014V23.3576L14.0063 21.2264H15.9875C17.162 21.2235 18.3029 21.6177 19.225 22.3451C19.3559 22.4479 19.5224 22.4944 19.6876 22.4745C19.8529 22.4546 20.0035 22.3698 20.1062 22.2389C20.209 22.1079 20.2556 21.9415 20.2356 21.7762C20.2157 21.611 20.131 21.4604 20 21.3576C18.8545 20.4617 17.4418 19.9754 15.9875 19.9764H6.5125C4.78579 19.978 3.13027 20.6647 1.90929 21.8857C0.688323 23.1066 0.00165473 24.7622 0 26.4889V34.3514C0 34.5171 0.0658481 34.6761 0.183058 34.7933C0.300269 34.9105 0.45924 34.9764 0.625 34.9764H13.125C13.2908 34.9764 13.4497 34.9105 13.5669 34.7933C13.6842 34.6761 13.75 34.5171 13.75 34.3514C13.75 34.1856 13.6842 34.0266 13.5669 33.9094C13.4497 33.7922 13.2908 33.7264 13.125 33.7264ZM11.25 22.2201L10.2563 21.2264H12.2437L11.25 22.2201Z" fill="#333333"/>
<path d="M4.375 12.3826C4.50309 14.1134 5.28104 15.7317 6.55272 16.9128C7.82441 18.0938 9.49572 18.7502 11.2312 18.7502C12.9668 18.7502 14.6381 18.0938 15.9098 16.9128C17.1815 15.7317 17.9594 14.1134 18.0875 12.3826C18.4528 12.2604 18.7702 12.026 18.9946 11.713C19.219 11.3999 19.339 11.0241 19.3375 10.6389V9.30763C19.336 8.91699 19.2097 8.53706 18.9769 8.22333C18.7442 7.90961 18.4172 7.67854 18.0437 7.56388L17.925 6.15763C17.7798 4.47737 17.0098 2.91266 15.767 1.77258C14.5242 0.632512 12.899 0 11.2125 0C9.52599 0 7.9008 0.632512 6.658 1.77258C5.41519 2.91266 4.64515 4.47737 4.5 6.15763L4.38125 7.56388C4.01533 7.6859 3.69708 7.91997 3.47161 8.23294C3.24614 8.54591 3.12487 8.9219 3.125 9.30763V10.6451C3.1248 11.0293 3.2454 11.4037 3.46972 11.7155C3.69405 12.0273 4.01074 12.2607 4.375 12.3826ZM5.7625 6.25763C5.87623 4.88542 6.50166 3.60611 7.5147 2.67356C8.52774 1.74101 9.85433 1.22337 11.2312 1.22337C12.6082 1.22337 13.9348 1.74101 14.9478 2.67356C15.9608 3.60611 16.5863 4.88542 16.7 6.25763L16.7875 7.33888C13.1113 6.69513 9.3512 6.69513 5.675 7.33888L5.7625 6.25763ZM16.775 8.61388C16.6649 9.0016 16.4328 9.34352 16.113 9.58894C15.7933 9.83436 15.403 9.97022 15 9.97638H7.5C7.09377 9.97425 6.69922 9.84023 6.37572 9.59451C6.05222 9.34879 5.81728 9.00465 5.70625 8.61388C9.37183 7.94511 13.1282 7.94511 16.7937 8.61388H16.775ZM4.375 9.30763C4.37948 9.17979 4.42556 9.0569 4.50625 8.95763C4.69188 9.60921 5.08424 10.1828 5.62421 10.592C6.16417 11.0012 6.8225 11.2239 7.5 11.2264H15C15.6775 11.2239 16.3358 11.0012 16.8758 10.592C17.4158 10.1828 17.8081 9.60921 17.9938 8.95763C18.0744 9.0569 18.1205 9.17979 18.125 9.30763V10.6451C18.1139 10.8032 18.0432 10.9511 17.9272 11.0591C17.8111 11.167 17.6585 11.2268 17.5 11.2264C17.3342 11.2264 17.1753 11.2922 17.0581 11.4094C16.9408 11.5266 16.875 11.6856 16.875 11.8514C16.875 13.3432 16.2824 14.774 15.2275 15.8289C14.1726 16.8837 12.7418 17.4764 11.25 17.4764C9.75816 17.4764 8.32742 16.8837 7.27253 15.8289C6.21763 14.774 5.625 13.3432 5.625 11.8514C5.61388 11.6817 5.53854 11.5226 5.41431 11.4065C5.29008 11.2904 5.12629 11.226 4.95625 11.2264C4.80546 11.2161 4.66349 11.1516 4.55662 11.0448C4.44976 10.9379 4.38523 10.7959 4.375 10.6451V9.30763Z" fill="#333333"/>
<path d="M26.875 23.7264H15.625C15.4592 23.7264 15.3003 23.7922 15.1831 23.9094C15.0658 24.0267 15 24.1856 15 24.3514V34.3514C15 34.5171 15.0658 34.6761 15.1831 34.7933C15.3003 34.9105 15.4592 34.9764 15.625 34.9764H26.875C27.0408 34.9764 27.1997 34.9105 27.3169 34.7933C27.4342 34.6761 27.5 34.5171 27.5 34.3514V24.3514C27.5 24.1856 27.4342 24.0267 27.3169 23.9094C27.1997 23.7922 27.0408 23.7264 26.875 23.7264ZM21.875 24.9764V26.2264H20.625V24.9764H21.875ZM26.25 33.7264H16.25V24.9764H19.375V26.8514C19.375 27.0171 19.4408 27.1761 19.5581 27.2933C19.6753 27.4105 19.8342 27.4764 20 27.4764H22.5C22.6658 27.4764 22.8247 27.4105 22.9419 27.2933C23.0592 27.1761 23.125 27.0171 23.125 26.8514V24.9764H26.25V33.7264Z" fill="#333333"/>
<path d="M13.125 5.60138C13.125 5.43562 13.0592 5.27665 12.9419 5.15944C12.8247 5.04223 12.6658 4.97638 12.5 4.97638H10C9.83424 4.97638 9.67527 5.04223 9.55806 5.15944C9.44085 5.27665 9.375 5.43562 9.375 5.60138C9.375 5.76714 9.44085 5.92611 9.55806 6.04332C9.67527 6.16053 9.83424 6.22638 10 6.22638H12.5C12.6658 6.22638 12.8247 6.16053 12.9419 6.04332C13.0592 5.92611 13.125 5.76714 13.125 5.60138Z" fill="#333333"/>
</svg>
