<svg width="31" height="31" viewBox="0 0 31 31" fill="none" xmlns="http://www.w3.org/2000/svg">
<path d="M18.5 25H17.5V27H18.5V25Z" fill="#333333"/>
<path d="M1.5 27H2.5V24H12V23H2.5V5.5H17.5V11H18.5V5.207L20 3.707V1.691L19.7235 1.553C19.5965 1.4895 16.543 0 10 0C3.457 0 0.4035 1.4895 0.2765 1.5525L0 1.691V3.707L1.5 5.207V27ZM1.207 3.5H7.5V2.5H1V2.329C1.8705 1.9835 4.8025 1 10 1C15.198 1 18.131 1.9835 19 2.329V2.5H12.5V3.5H18.793L17.793 4.5H2.207L1.207 3.5Z" fill="#333333"/>
<path d="M0.5 31H19.5V28H0.5V31ZM1.5 29H18.5V30H1.5V29Z" fill="#333333"/>
<path d="M15 11V7H5V11H15ZM6 8H14V10H6V8Z" fill="#333333"/>
<path d="M13 12V24H31V12H13ZM29.293 13L25.0605 17.2325C24.243 18.05 23.156 18.5 22 18.5C20.844 18.5 19.757 18.05 18.9395 17.2325L14.707 13H29.293ZM30 22.293L26.394 18.687L25.687 19.394L29.293 23H14.707L18.313 19.394L17.606 18.687L14 22.293V13.707L18.2325 17.9395C19.239 18.946 20.5765 19.5 22 19.5C23.4235 19.5 24.761 18.946 25.7675 17.9395L30 13.707V22.293Z" fill="#333333"/>
</svg>
