<svg width="30" height="30" viewBox="0 0 30 30" fill="none" xmlns="http://www.w3.org/2000/svg">
<mask id="path-1-inside-1_1_5248" fill="white">
<path d="M15 0C6.72965 0 0 6.7282 0 15C0 23.2718 6.72965 30 15 30C23.2703 30 30 23.2718 30 15C30 6.7282 23.2703 0 15 0ZM15 29.0009C7.28064 29.0009 1.00094 22.7198 1.00094 15C1.00094 7.28015 7.28064 0.999127 15 0.999127C22.7194 0.999127 28.9991 7.28015 28.9991 15C28.9991 22.7198 22.7194 29.0009 15 29.0009Z"/>
<path d="M18.2741 6.58039H15.7783C12.5996 6.54858 12.1936 8.51597 12.1936 10.6452V12.1935H10.7905C10.727 12.185 10.6625 12.1913 10.6019 12.2118C10.5413 12.2323 10.4862 12.2665 10.441 12.3117C10.3957 12.357 10.3615 12.412 10.341 12.4727C10.3205 12.5333 10.3143 12.5978 10.3227 12.6612V15.4678C10.3143 15.5312 10.3205 15.5957 10.341 15.6563C10.3615 15.7169 10.3957 15.772 10.441 15.8172C10.4862 15.8625 10.5413 15.8967 10.6019 15.9172C10.6625 15.9377 10.727 15.944 10.7905 15.9355H12.1936V22.9519C12.1858 23.0154 12.1927 23.0799 12.2136 23.1404C12.2345 23.2009 12.269 23.2558 12.3144 23.3009C12.3598 23.346 12.4149 23.3802 12.4756 23.4008C12.5362 23.4213 12.6007 23.4278 12.6642 23.4196H15.522C15.7979 23.4514 16.0215 23.2278 15.9336 22.9519L15.9355 15.9355H18.2741C18.3375 15.944 18.402 15.9377 18.4626 15.9172C18.5232 15.8967 18.5783 15.8625 18.6236 15.8172C18.6688 15.772 18.703 15.7169 18.7235 15.6563C18.744 15.5957 18.7503 15.5312 18.7418 15.4678V12.6612C18.7503 12.5978 18.744 12.5333 18.7235 12.4727C18.703 12.412 18.6688 12.357 18.6236 12.3117C18.5783 12.2665 18.5232 12.2323 18.4626 12.2118C18.402 12.1913 18.3375 12.185 18.2741 12.1935H15.9326L15.9355 10.7902C16.0262 10.1924 16.0262 10.2897 16.5809 10.3224H18.2544C18.3845 10.2934 18.5229 10.3093 18.6202 10.2149C18.7175 10.1204 18.7736 9.99127 18.7409 9.85468V7.04815C18.7495 6.98477 18.7434 6.92026 18.723 6.85964C18.7026 6.79902 18.6685 6.74392 18.6233 6.69865C18.5781 6.65338 18.5231 6.61915 18.4625 6.59864C18.402 6.57813 18.3375 6.57188 18.2741 6.58039ZM17.7736 9.33454L16.6006 9.28963C15.1478 9.28963 15.0262 10.0783 15.0262 10.8856L15.0225 12.6593C15.0223 12.725 15.0352 12.7901 15.0602 12.8508C15.0853 12.9115 15.122 12.9667 15.1684 13.0132C15.2148 13.0597 15.2699 13.0966 15.3306 13.1217C15.3913 13.1469 15.4563 13.1598 15.522 13.1598H17.8064V14.9673H15.5239C15.3913 14.9673 15.2641 15.0199 15.1703 15.1135C15.0765 15.2072 15.0236 15.3342 15.0234 15.4668L15.0225 22.4841H13.1291V15.4678C13.1291 15.1918 12.9411 14.9682 12.6642 14.9682H11.2582V13.1608H12.6642C12.7298 13.1609 12.7948 13.148 12.8555 13.123C12.9162 13.098 12.9713 13.0612 13.0178 13.0148C13.1113 12.9204 13.1282 12.7931 13.1282 12.6603V10.6443C13.1282 8.54684 13.5519 7.54771 15.7774 7.54771H17.7727L17.7736 9.33454Z"/>
</mask>
<path d="M15 0C6.72965 0 0 6.7282 0 15C0 23.2718 6.72965 30 15 30C23.2703 30 30 23.2718 30 15C30 6.7282 23.2703 0 15 0ZM15 29.0009C7.28064 29.0009 1.00094 22.7198 1.00094 15C1.00094 7.28015 7.28064 0.999127 15 0.999127C22.7194 0.999127 28.9991 7.28015 28.9991 15C28.9991 22.7198 22.7194 29.0009 15 29.0009Z" fill="#333333"/>
<path d="M18.2741 6.58039H15.7783C12.5996 6.54858 12.1936 8.51597 12.1936 10.6452V12.1935H10.7905C10.727 12.185 10.6625 12.1913 10.6019 12.2118C10.5413 12.2323 10.4862 12.2665 10.441 12.3117C10.3957 12.357 10.3615 12.412 10.341 12.4727C10.3205 12.5333 10.3143 12.5978 10.3227 12.6612V15.4678C10.3143 15.5312 10.3205 15.5957 10.341 15.6563C10.3615 15.7169 10.3957 15.772 10.441 15.8172C10.4862 15.8625 10.5413 15.8967 10.6019 15.9172C10.6625 15.9377 10.727 15.944 10.7905 15.9355H12.1936V22.9519C12.1858 23.0154 12.1927 23.0799 12.2136 23.1404C12.2345 23.2009 12.269 23.2558 12.3144 23.3009C12.3598 23.346 12.4149 23.3802 12.4756 23.4008C12.5362 23.4213 12.6007 23.4278 12.6642 23.4196H15.522C15.7979 23.4514 16.0215 23.2278 15.9336 22.9519L15.9355 15.9355H18.2741C18.3375 15.944 18.402 15.9377 18.4626 15.9172C18.5232 15.8967 18.5783 15.8625 18.6236 15.8172C18.6688 15.772 18.703 15.7169 18.7235 15.6563C18.744 15.5957 18.7503 15.5312 18.7418 15.4678V12.6612C18.7503 12.5978 18.744 12.5333 18.7235 12.4727C18.703 12.412 18.6688 12.357 18.6236 12.3117C18.5783 12.2665 18.5232 12.2323 18.4626 12.2118C18.402 12.1913 18.3375 12.185 18.2741 12.1935H15.9326L15.9355 10.7902C16.0262 10.1924 16.0262 10.2897 16.5809 10.3224H18.2544C18.3845 10.2934 18.5229 10.3093 18.6202 10.2149C18.7175 10.1204 18.7736 9.99127 18.7409 9.85468V7.04815C18.7495 6.98477 18.7434 6.92026 18.723 6.85964C18.7026 6.79902 18.6685 6.74392 18.6233 6.69865C18.5781 6.65338 18.5231 6.61915 18.4625 6.59864C18.402 6.57813 18.3375 6.57188 18.2741 6.58039ZM17.7736 9.33454L16.6006 9.28963C15.1478 9.28963 15.0262 10.0783 15.0262 10.8856L15.0225 12.6593C15.0223 12.725 15.0352 12.7901 15.0602 12.8508C15.0853 12.9115 15.122 12.9667 15.1684 13.0132C15.2148 13.0597 15.2699 13.0966 15.3306 13.1217C15.3913 13.1469 15.4563 13.1598 15.522 13.1598H17.8064V14.9673H15.5239C15.3913 14.9673 15.2641 15.0199 15.1703 15.1135C15.0765 15.2072 15.0236 15.3342 15.0234 15.4668L15.0225 22.4841H13.1291V15.4678C13.1291 15.1918 12.9411 14.9682 12.6642 14.9682H11.2582V13.1608H12.6642C12.7298 13.1609 12.7948 13.148 12.8555 13.123C12.9162 13.098 12.9713 13.0612 13.0178 13.0148C13.1113 12.9204 13.1282 12.7931 13.1282 12.6603V10.6443C13.1282 8.54684 13.5519 7.54771 15.7774 7.54771H17.7727L17.7736 9.33454Z" fill="#333333"/>
<path d="M18.2741 6.58039V7.58039H18.3409L18.4071 7.5715L18.2741 6.58039ZM15.7783 6.58039L15.7683 7.58039H15.7783V6.58039ZM12.1936 12.1935V13.1935H13.1936V12.1935H12.1936ZM10.7905 12.1935L10.6581 13.1847L10.724 13.1935H10.7905V12.1935ZM10.3227 12.6612H11.3227V12.5947L11.3139 12.5288L10.3227 12.6612ZM10.3227 15.4678L11.3139 15.6001L11.3227 15.5342V15.4678H10.3227ZM10.7905 15.9355V14.9355H10.724L10.6581 14.9443L10.7905 15.9355ZM12.1936 15.9355H13.1936V14.9355H12.1936V15.9355ZM12.1936 22.9519L13.1862 23.0736L13.1936 23.013V22.9519H12.1936ZM12.6642 23.4196V22.4196H12.6001L12.5365 22.4278L12.6642 23.4196ZM15.522 23.4196L15.6365 22.4262L15.5794 22.4196H15.522V23.4196ZM15.9336 22.9519L14.9336 22.9516L14.9335 23.1072L14.9808 23.2554L15.9336 22.9519ZM15.9355 15.9355V14.9355H14.9357L14.9355 15.9352L15.9355 15.9355ZM18.2741 15.9355L18.4065 14.9443L18.3406 14.9355H18.2741V15.9355ZM18.7418 15.4678H17.7418V15.5342L17.7506 15.6001L18.7418 15.4678ZM18.7418 12.6612L17.7506 12.5288L17.7418 12.5947V12.6612H18.7418ZM18.2741 12.1935V13.1935H18.3406L18.4065 13.1847L18.2741 12.1935ZM15.9326 12.1935L14.9326 12.1915L14.9306 13.1935H15.9326V12.1935ZM15.9355 10.7902L14.9468 10.6401L14.9356 10.7137L14.9355 10.7882L15.9355 10.7902ZM16.5809 10.3224L16.522 11.3207L16.5514 11.3224H16.5809V10.3224ZM18.2544 10.3224V11.3224H18.3646L18.4721 11.2985L18.2544 10.3224ZM18.7409 9.85468H17.7409V9.97287L17.7684 10.0878L18.7409 9.85468ZM18.7409 7.04815L17.75 6.91314L17.7409 6.98033V7.04815H18.7409ZM17.7736 9.33454L17.7354 10.3338L18.7742 10.3736L18.7736 9.33402L17.7736 9.33454ZM16.6006 9.28963L16.6388 8.29037L16.6197 8.28963H16.6006V9.28963ZM15.0262 10.8856L16.0262 10.8877V10.8856H15.0262ZM15.0225 12.6593L14.0225 12.6572V12.6575L15.0225 12.6593ZM15.522 13.1598V12.1598H15.522L15.522 13.1598ZM17.8064 13.1598H18.8064V12.1598H17.8064V13.1598ZM17.8064 14.9673V15.9673H18.8064V14.9673H17.8064ZM15.5239 14.9673L15.5239 15.9673H15.5239V14.9673ZM15.0234 15.4668L14.0234 15.465V15.4667L15.0234 15.4668ZM15.0225 22.4841V23.4841H16.0223L16.0225 22.4842L15.0225 22.4841ZM13.1291 22.4841H12.1291V23.4841H13.1291V22.4841ZM11.2582 14.9682H10.2582V15.9682H11.2582V14.9682ZM11.2582 13.1608V12.1608H10.2582V13.1608H11.2582ZM12.6642 13.1608L12.6657 12.1608H12.6642V13.1608ZM13.0178 13.0148L13.7242 13.7227L13.7284 13.7184L13.0178 13.0148ZM17.7727 7.54771L18.7727 7.54719L18.7722 6.54771H17.7727V7.54771ZM15 -1C6.17743 -1 -1 6.17586 -1 15H1C1 7.28055 7.28188 1 15 1V-1ZM-1 15C-1 23.8241 6.17743 31 15 31V29C7.28188 29 1 22.7194 1 15H-1ZM15 31C23.8226 31 31 23.8241 31 15H29C29 22.7194 22.7181 29 15 29V31ZM31 15C31 6.17586 23.8226 -1 15 -1V1C22.7181 1 29 7.28055 29 15H31ZM15 28.0009C7.83307 28.0009 2.00094 22.1677 2.00094 15H0.00093541C0.00093541 23.272 6.72821 30.0009 15 30.0009V28.0009ZM2.00094 15C2.00094 7.83229 7.83307 1.99913 15 1.99913V-0.000873104C6.72821 -0.000873104 0.00093541 6.72802 0.00093541 15H2.00094ZM15 1.99913C22.1669 1.99913 27.9991 7.83229 27.9991 15H29.9991C29.9991 6.72802 23.2718 -0.000873104 15 -0.000873104V1.99913ZM27.9991 15C27.9991 22.1677 22.1669 28.0009 15 28.0009V30.0009C23.2718 30.0009 29.9991 23.272 29.9991 15H27.9991ZM18.2741 5.58039H15.7783V7.58039H18.2741V5.58039ZM15.7883 5.58044C13.9796 5.56234 12.7036 6.12657 11.96 7.25066C11.2827 8.27443 11.1936 9.57029 11.1936 10.6452H13.1936C13.1936 9.59087 13.3076 8.83843 13.628 8.35415C13.882 7.97019 14.3983 7.56663 15.7683 7.58034L15.7883 5.58044ZM11.1936 10.6452V12.1935H13.1936V10.6452H11.1936ZM12.1936 11.1935H10.7905V13.1935H12.1936V11.1935ZM10.9229 11.2023C10.7071 11.1734 10.4876 11.1948 10.2813 11.2645L10.9225 13.159C10.8375 13.1878 10.747 13.1965 10.6581 13.1847L10.9229 11.2023ZM10.2813 11.2645C10.0751 11.3343 9.8878 11.4507 9.73386 11.6046L11.1481 13.0188C11.0847 13.0823 11.0075 13.1302 10.9225 13.159L10.2813 11.2645ZM9.73386 11.6046C9.57994 11.7586 9.46357 11.9459 9.39379 12.1521L11.2883 12.7932C11.2595 12.8782 11.2116 12.9554 11.1481 13.0188L9.73386 11.6046ZM9.39379 12.1521C9.32402 12.3583 9.30271 12.5778 9.33153 12.7936L11.3139 12.5288C11.3258 12.6177 11.317 12.7082 11.2883 12.7932L9.39379 12.1521ZM9.32273 12.6612V15.4678H11.3227V12.6612H9.32273ZM9.33153 15.3354C9.30271 15.5511 9.32402 15.7706 9.39379 15.9768L11.2883 15.3358C11.317 15.4208 11.3258 15.5112 11.3139 15.6001L9.33153 15.3354ZM9.39379 15.9768C9.46356 16.183 9.57993 16.3704 9.73386 16.5243L11.1481 15.1102C11.2116 15.1736 11.2595 15.2508 11.2883 15.3358L9.39379 15.9768ZM9.73386 16.5243C9.8878 16.6783 10.0751 16.7947 10.2813 16.8644L10.9225 14.97C11.0075 14.9987 11.0847 15.0467 11.1481 15.1102L9.73386 16.5243ZM10.2813 16.8644C10.4876 16.9342 10.7071 16.9555 10.9229 16.9267L10.6581 14.9443C10.747 14.9324 10.8375 14.9412 10.9225 14.97L10.2813 16.8644ZM10.7905 16.9355H12.1936V14.9355H10.7905V16.9355ZM11.1936 15.9355V22.9519H13.1936V15.9355H11.1936ZM11.2011 22.8301C11.1747 23.0449 11.1978 23.2629 11.2686 23.4674L13.1586 22.8134C13.1875 22.8969 13.197 22.9859 13.1862 23.0736L11.2011 22.8301ZM11.2686 23.4674C11.3394 23.6719 11.4559 23.8575 11.6094 24.0101L13.0194 22.5917C13.0821 22.654 13.1297 22.7298 13.1586 22.8134L11.2686 23.4674ZM11.6094 24.0101C11.7629 24.1627 11.9492 24.2782 12.1542 24.3477L12.7969 22.4538C12.8806 22.4822 12.9567 22.5294 13.0194 22.5917L11.6094 24.0101ZM12.1542 24.3477C12.3591 24.4173 12.5772 24.4391 12.7919 24.4114L12.5365 22.4278C12.6241 22.4165 12.7132 22.4254 12.7969 22.4538L12.1542 24.3477ZM12.6642 24.4196H15.522V22.4196H12.6642V24.4196ZM15.4075 24.413C15.8419 24.4631 16.2904 24.3154 16.6006 23.9777C16.9258 23.6238 17.0379 23.1238 16.8864 22.6483L14.9808 23.2554C14.9172 23.0558 14.9615 22.8057 15.1279 22.6246C15.2793 22.4598 15.478 22.4079 15.6365 22.4262L15.4075 24.413ZM16.9336 22.9521L16.9355 15.9358L14.9355 15.9352L14.9336 22.9516L16.9336 22.9521ZM15.9355 16.9355H18.2741V14.9355H15.9355V16.9355ZM18.1417 16.9267C18.3575 16.9555 18.577 16.9342 18.7832 16.8644L18.1421 14.97C18.2271 14.9412 18.3176 14.9324 18.4065 14.9443L18.1417 16.9267ZM18.7832 16.8644C18.9894 16.7947 19.1767 16.6783 19.3307 16.5243L17.9164 15.1102C17.9799 15.0467 18.0571 14.9987 18.1421 14.97L18.7832 16.8644ZM19.3307 16.5243C19.4846 16.3704 19.601 16.183 19.6708 15.9768L17.7763 15.3358C17.805 15.2508 17.853 15.1736 17.9164 15.1102L19.3307 16.5243ZM19.6708 15.9768C19.7405 15.7706 19.7618 15.5511 19.733 15.3354L17.7506 15.6001C17.7387 15.5112 17.7475 15.4208 17.7763 15.3358L19.6708 15.9768ZM19.7418 15.4678V12.6612H17.7418V15.4678H19.7418ZM19.733 12.7936C19.7618 12.5778 19.7405 12.3583 19.6708 12.1521L17.7763 12.7932C17.7475 12.7082 17.7387 12.6177 17.7506 12.5288L19.733 12.7936ZM19.6708 12.1521C19.601 11.9459 19.4846 11.7586 19.3307 11.6046L17.9164 13.0188C17.853 12.9554 17.805 12.8782 17.7763 12.7932L19.6708 12.1521ZM19.3307 11.6046C19.1767 11.4507 18.9894 11.3343 18.7832 11.2645L18.1421 13.159C18.0571 13.1302 17.9799 13.0823 17.9164 13.0188L19.3307 11.6046ZM18.7832 11.2645C18.577 11.1948 18.3575 11.1734 18.1417 11.2023L18.4065 13.1847C18.3176 13.1965 18.2271 13.1878 18.1421 13.159L18.7832 11.2645ZM18.2741 11.1935H15.9326V13.1935H18.2741V11.1935ZM16.9326 12.1955L16.9355 10.7922L14.9355 10.7882L14.9326 12.1915L16.9326 12.1955ZM16.9241 10.9403C16.9356 10.8648 16.9437 10.8132 16.9508 10.7736C16.9582 10.732 16.9608 10.7257 16.9576 10.737C16.9551 10.7456 16.9361 10.8123 16.8836 10.8972C16.8231 10.9949 16.7254 11.1049 16.582 11.1872C16.4476 11.2643 16.3276 11.2856 16.268 11.2922C16.2141 11.2983 16.1826 11.295 16.2037 11.2961C16.2235 11.2972 16.249 11.2995 16.3111 11.3049C16.3664 11.3097 16.4383 11.3158 16.522 11.3207L16.6398 9.32418C16.5848 9.32093 16.5354 9.31682 16.4842 9.31237C16.4397 9.30851 16.3736 9.30246 16.3139 9.29917C16.2443 9.29533 15.9107 9.26644 15.5864 9.45257C15.2018 9.67332 15.0789 10.0335 15.0356 10.1837C14.9923 10.3342 14.9661 10.513 14.9468 10.6401L16.9241 10.9403ZM16.5809 11.3224H18.2544V9.32244H16.5809V11.3224ZM18.4721 11.2985C18.4537 11.3026 18.445 11.3029 18.4758 11.2991C18.4921 11.2971 18.5616 11.2892 18.6285 11.2771C18.7767 11.2501 19.0626 11.1792 19.3169 10.9322L17.9235 9.4975C17.9981 9.42508 18.0782 9.37742 18.1477 9.34776C18.2118 9.32037 18.2603 9.31124 18.2707 9.30934C18.2767 9.30826 18.2779 9.30822 18.2702 9.30925C18.2596 9.31065 18.2532 9.31137 18.2298 9.31428C18.1949 9.31859 18.1202 9.3278 18.0368 9.34642L18.4721 11.2985ZM19.3169 10.9322C19.5926 10.6645 19.8501 10.192 19.7133 9.62158L17.7684 10.0878C17.6972 9.79052 17.8424 9.57628 17.9235 9.4975L19.3169 10.9322ZM19.7409 9.85468V7.04815H17.7409V9.85468H19.7409ZM19.7317 7.18315C19.7611 6.9672 19.7403 6.74739 19.6708 6.54084L17.7752 7.17844C17.7465 7.09314 17.7379 7.00234 17.75 6.91314L19.7317 7.18315ZM19.6708 6.54084C19.6014 6.33428 19.4851 6.14655 19.3312 5.99228L17.9155 7.40503C17.8519 7.3413 17.8039 7.26376 17.7752 7.17844L19.6708 6.54084ZM19.3312 5.99228C19.1772 5.83801 18.9897 5.72138 18.7833 5.65147L18.1418 7.54581C18.0565 7.51693 17.9791 7.46875 17.9155 7.40503L19.3312 5.99228ZM18.7833 5.65147C18.5768 5.58157 18.3571 5.56029 18.1411 5.58928L18.4071 7.5715C18.3179 7.58348 18.2271 7.57469 18.1418 7.54581L18.7833 5.65147ZM17.8119 8.33527L16.6388 8.29037L16.5623 10.2889L17.7354 10.3338L17.8119 8.33527ZM16.6006 8.28963C15.7054 8.28963 14.9279 8.53846 14.4537 9.20529C14.038 9.78982 14.0262 10.491 14.0262 10.8856H16.0262C16.0262 10.701 16.034 10.5722 16.0518 10.4746C16.0687 10.3812 16.0878 10.3584 16.0835 10.3645C16.0717 10.3811 16.0651 10.3732 16.1141 10.3535C16.1769 10.3284 16.3216 10.2896 16.6006 10.2896V8.28963ZM14.0262 10.8835L14.0225 12.6572L16.0224 12.6615L16.0262 10.8877L14.0262 10.8835ZM14.0225 12.6575C14.0221 12.8546 14.0606 13.0499 14.1358 13.2322L15.9846 12.4694C16.0097 12.5303 16.0226 12.5954 16.0224 12.6612L14.0225 12.6575ZM14.1358 13.2322C14.211 13.4144 14.3214 13.5801 14.4606 13.7196L15.8762 12.3068C15.9227 12.3533 15.9595 12.4086 15.9846 12.4694L14.1358 13.2322ZM14.4606 13.7196C14.5999 13.8592 14.7654 13.9699 14.9475 14.0454L15.7137 12.198C15.7745 12.2233 15.8297 12.2602 15.8762 12.3068L14.4606 13.7196ZM14.9475 14.0454C15.1296 14.121 15.3248 14.1598 15.522 14.1598L15.522 12.1598C15.5878 12.1598 15.6529 12.1728 15.7137 12.198L14.9475 14.0454ZM15.522 14.1598H17.8064V12.1598H15.522V14.1598ZM16.8064 13.1598V14.9673H18.8064V13.1598H16.8064ZM17.8064 13.9673H15.5239V15.9673H17.8064V13.9673ZM15.5239 13.9673C15.1264 13.9673 14.7451 14.125 14.4638 14.4058L15.8768 15.8213C15.7831 15.9147 15.6562 15.9673 15.5239 15.9673L15.5239 13.9673ZM14.4638 14.4058C14.1825 14.6866 14.0241 15.0675 14.0234 15.465L16.0234 15.4687C16.0231 15.601 15.9704 15.7278 15.8768 15.8213L14.4638 14.4058ZM14.0234 15.4667L14.0225 22.484L16.0225 22.4842L16.0234 15.467L14.0234 15.4667ZM15.0225 21.4841H13.1291V23.4841H15.0225V21.4841ZM14.1291 22.4841V15.4678H12.1291V22.4841H14.1291ZM14.1291 15.4678C14.1291 14.738 13.587 13.9682 12.6642 13.9682V15.9682C12.5168 15.9682 12.3643 15.9021 12.2583 15.7846C12.1597 15.6755 12.1291 15.5552 12.1291 15.4678H14.1291ZM12.6642 13.9682H11.2582V15.9682H12.6642V13.9682ZM12.2582 14.9682V13.1608H10.2582V14.9682H12.2582ZM11.2582 14.1608H12.6642V12.1608H11.2582V14.1608ZM12.6627 14.1608C12.8597 14.1611 13.0549 14.1225 13.237 14.0474L12.474 12.1986C12.5348 12.1736 12.5999 12.1607 12.6657 12.1608L12.6627 14.1608ZM13.237 14.0474C13.4191 13.9722 13.5847 13.8619 13.7241 13.7227L12.3114 12.307C12.3579 12.2606 12.4132 12.2237 12.474 12.1986L13.237 14.0474ZM13.7284 13.7184C14.1194 13.3235 14.1282 12.8363 14.1282 12.6603H12.1282C12.1282 12.6933 12.1248 12.6587 12.1412 12.5966C12.161 12.5214 12.2083 12.4112 12.3071 12.3113L13.7284 13.7184ZM14.1282 12.6603V10.6443H12.1282V12.6603H14.1282ZM14.1282 10.6443C14.1282 9.58947 14.2531 9.12951 14.4181 8.9096C14.5196 8.77433 14.7807 8.54771 15.7774 8.54771V6.54771C14.5486 6.54771 13.4851 6.82066 12.8183 7.7093C12.2151 8.51331 12.1282 9.60162 12.1282 10.6443H14.1282ZM15.7774 8.54771H17.7727V6.54771H15.7774V8.54771ZM16.7727 7.54823L16.7736 9.33506L18.7736 9.33402L18.7727 7.54719L16.7727 7.54823Z" fill="#333333" mask="url(#path-1-inside-1_1_5248)"/>
</svg>
