<svg width="20" height="20" viewBox="0 0 20 20" fill="none" xmlns="http://www.w3.org/2000/svg">
<path d="M15.647 18.9396C15.5983 18.9396 15.5507 18.9255 15.51 18.899L10.0005 15.3005L4.49046 18.899C4.44801 18.9268 4.39812 18.941 4.34742 18.9397C4.29671 18.9385 4.2476 18.9218 4.20658 18.892C4.16557 18.8621 4.1346 18.8205 4.11779 18.7727C4.10098 18.7248 4.09912 18.673 4.11246 18.6241L5.83096 12.272L0.707459 8.14355C0.667709 8.11193 0.638556 8.06893 0.623898 8.0203C0.609239 7.97166 0.609772 7.91972 0.625426 7.8714C0.64108 7.82308 0.671109 7.78068 0.711499 7.74989C0.75189 7.71909 0.800719 7.70135 0.851459 7.69905L7.42446 7.37105L9.76746 1.22205C9.84046 1.02755 10.161 1.02755 10.2345 1.22205L12.577 7.37105L19.15 7.69905C19.2006 7.70161 19.2492 7.7195 19.2894 7.75033C19.3296 7.78116 19.3595 7.82348 19.3751 7.87168C19.3907 7.91988 19.3913 7.97169 19.3768 8.02024C19.3624 8.06879 19.3334 8.1118 19.294 8.14355L14.1705 12.272L15.889 18.6241C15.899 18.6612 15.9004 18.7001 15.893 18.7379C15.8855 18.7756 15.8695 18.8112 15.8461 18.8417C15.8226 18.8722 15.7925 18.8969 15.758 18.9139C15.7234 18.9309 15.6854 18.9397 15.647 18.9396ZM10.0005 14.7525C10.0489 14.7525 10.0963 14.7666 10.137 14.793L15.234 18.1215L13.644 12.245C13.6314 12.1981 13.6326 12.1485 13.6476 12.1023C13.6626 12.0561 13.6907 12.0152 13.7285 11.9845L18.468 8.16505L12.388 7.86205C12.3396 7.85952 12.293 7.84301 12.2539 7.81451C12.2148 7.78602 12.1847 7.74678 12.1675 7.70155L10.0005 2.01305L7.83296 7.70155C7.81591 7.74692 7.78594 7.7863 7.74675 7.81483C7.70756 7.84335 7.66088 7.85977 7.61246 7.86205L1.53246 8.16505L6.27246 11.9845C6.31026 12.0151 6.33837 12.056 6.35337 12.1023C6.36837 12.1485 6.36962 12.1981 6.35696 12.245L4.76696 18.1215L9.86396 14.793C9.90457 14.7666 9.95199 14.7525 10.0005 14.7525Z" fill="#333333"/>
</svg>
