<svg width="22" height="19" viewBox="0 0 22 19" fill="none" xmlns="http://www.w3.org/2000/svg">
<path d="M20.8683 2.90803L20.8685 2.90841C22.0421 5.20926 21.6054 7.85096 19.3273 10.8504L19.3264 10.8516C17.5246 13.2394 14.9267 15.6354 11.1279 18.4595L11.127 18.4602C11.0941 18.4847 11.0506 18.5 11.0033 18.5C10.956 18.5 10.9125 18.4847 10.8795 18.4602L10.8788 18.4596C7.07495 15.6303 4.48209 13.2137 2.67881 10.8498C0.39419 7.85057 -0.0423161 5.20907 1.13123 2.90841L1.13143 2.90803C1.93755 1.32431 4.33423 -0.056249 7.21592 0.734355C8.58647 1.11345 9.7778 1.92504 10.5982 3.03165L10.9998 3.57344L11.4015 3.03165C12.222 1.9249 13.4135 1.11326 14.7843 0.73422L14.7855 0.733872C17.6573 -0.0682189 20.0613 1.32261 20.8683 2.90803Z" fill="#FCFCFC" stroke="#333333"/>
</svg>
