<svg width="30" height="30" viewBox="0 0 30 30" fill="none" xmlns="http://www.w3.org/2000/svg">
<mask id="path-1-inside-1_1_5250" fill="white">
<path d="M15 8.125C13.6403 8.125 12.311 8.52821 11.1805 9.28365C10.0499 10.0391 9.16868 11.1128 8.64833 12.3691C8.12798 13.6253 7.99183 15.0076 8.2571 16.3412C8.52238 17.6749 9.17715 18.8999 10.1386 19.8614C11.1001 20.8228 12.3251 21.4776 13.6588 21.7429C14.9924 22.0082 16.3747 21.872 17.6309 21.3517C18.8872 20.8313 19.9609 19.9501 20.7164 18.8195C21.4718 17.689 21.875 16.3597 21.875 15C21.875 13.1766 21.1507 11.428 19.8614 10.1386C18.572 8.84933 16.8234 8.125 15 8.125ZM15 20.625C13.8875 20.625 12.7999 20.2951 11.8749 19.677C10.9499 19.0589 10.2289 18.1804 9.80318 17.1526C9.37743 16.1248 9.26604 14.9938 9.48308 13.9026C9.70012 12.8115 10.2359 11.8092 11.0225 11.0225C11.8092 10.2359 12.8115 9.70012 13.9026 9.48308C14.9938 9.26604 16.1248 9.37743 17.1526 9.80318C18.1804 10.2289 19.0589 10.9499 19.677 11.8749C20.2951 12.7999 20.625 13.8875 20.625 15C20.625 16.4918 20.0324 17.9226 18.9775 18.9775C17.9226 20.0324 16.4918 20.625 15 20.625ZM21.875 0H8.125C5.97012 0 3.90349 0.856024 2.37976 2.37976C0.856024 3.90349 0 5.97012 0 8.125V21.875C0 22.942 0.210159 23.9985 0.618479 24.9843C1.0268 25.9701 1.62528 26.8658 2.37976 27.6202C3.90349 29.144 5.97012 30 8.125 30H21.875C22.942 30 23.9985 29.7898 24.9843 29.3815C25.9701 28.9732 26.8658 28.3747 27.6202 27.6202C28.3747 26.8658 28.9732 25.9701 29.3815 24.9843C29.7898 23.9985 30 22.942 30 21.875V8.125C30 7.05801 29.7898 6.00147 29.3815 5.0157C28.9732 4.02993 28.3747 3.13423 27.6202 2.37976C26.8658 1.62528 25.9701 1.0268 24.9843 0.618479C23.9985 0.210159 22.942 0 21.875 0ZM28.75 21.875C28.75 23.6984 28.0257 25.447 26.7364 26.7364C25.447 28.0257 23.6984 28.75 21.875 28.75H8.125C6.30164 28.75 4.55295 28.0257 3.26364 26.7364C1.97433 25.447 1.25 23.6984 1.25 21.875V8.125C1.25 6.30164 1.97433 4.55295 3.26364 3.26364C4.55295 1.97433 6.30164 1.25 8.125 1.25H21.875C23.6984 1.25 25.447 1.97433 26.7364 3.26364C28.0257 4.55295 28.75 6.30164 28.75 8.125V21.875ZM24.375 6.875C24.375 7.12223 24.3017 7.3639 24.1643 7.56946C24.027 7.77502 23.8318 7.93524 23.6034 8.02985C23.3749 8.12446 23.1236 8.14921 22.8811 8.10098C22.6387 8.05275 22.4159 7.9337 22.2411 7.75888C22.0663 7.58407 21.9472 7.36134 21.899 7.11886C21.8508 6.87639 21.8755 6.62505 21.9701 6.39665C22.0648 6.16824 22.225 5.97301 22.4305 5.83566C22.6361 5.69831 22.8778 5.625 23.125 5.625C23.4565 5.625 23.7745 5.7567 24.0089 5.99112C24.2433 6.22554 24.375 6.54348 24.375 6.875Z"/>
</mask>
<path d="M15 8.125C13.6403 8.125 12.311 8.52821 11.1805 9.28365C10.0499 10.0391 9.16868 11.1128 8.64833 12.3691C8.12798 13.6253 7.99183 15.0076 8.2571 16.3412C8.52238 17.6749 9.17715 18.8999 10.1386 19.8614C11.1001 20.8228 12.3251 21.4776 13.6588 21.7429C14.9924 22.0082 16.3747 21.872 17.6309 21.3517C18.8872 20.8313 19.9609 19.9501 20.7164 18.8195C21.4718 17.689 21.875 16.3597 21.875 15C21.875 13.1766 21.1507 11.428 19.8614 10.1386C18.572 8.84933 16.8234 8.125 15 8.125ZM15 20.625C13.8875 20.625 12.7999 20.2951 11.8749 19.677C10.9499 19.0589 10.2289 18.1804 9.80318 17.1526C9.37743 16.1248 9.26604 14.9938 9.48308 13.9026C9.70012 12.8115 10.2359 11.8092 11.0225 11.0225C11.8092 10.2359 12.8115 9.70012 13.9026 9.48308C14.9938 9.26604 16.1248 9.37743 17.1526 9.80318C18.1804 10.2289 19.0589 10.9499 19.677 11.8749C20.2951 12.7999 20.625 13.8875 20.625 15C20.625 16.4918 20.0324 17.9226 18.9775 18.9775C17.9226 20.0324 16.4918 20.625 15 20.625ZM21.875 0H8.125C5.97012 0 3.90349 0.856024 2.37976 2.37976C0.856024 3.90349 0 5.97012 0 8.125V21.875C0 22.942 0.210159 23.9985 0.618479 24.9843C1.0268 25.9701 1.62528 26.8658 2.37976 27.6202C3.90349 29.144 5.97012 30 8.125 30H21.875C22.942 30 23.9985 29.7898 24.9843 29.3815C25.9701 28.9732 26.8658 28.3747 27.6202 27.6202C28.3747 26.8658 28.9732 25.9701 29.3815 24.9843C29.7898 23.9985 30 22.942 30 21.875V8.125C30 7.05801 29.7898 6.00147 29.3815 5.0157C28.9732 4.02993 28.3747 3.13423 27.6202 2.37976C26.8658 1.62528 25.9701 1.0268 24.9843 0.618479C23.9985 0.210159 22.942 0 21.875 0ZM28.75 21.875C28.75 23.6984 28.0257 25.447 26.7364 26.7364C25.447 28.0257 23.6984 28.75 21.875 28.75H8.125C6.30164 28.75 4.55295 28.0257 3.26364 26.7364C1.97433 25.447 1.25 23.6984 1.25 21.875V8.125C1.25 6.30164 1.97433 4.55295 3.26364 3.26364C4.55295 1.97433 6.30164 1.25 8.125 1.25H21.875C23.6984 1.25 25.447 1.97433 26.7364 3.26364C28.0257 4.55295 28.75 6.30164 28.75 8.125V21.875ZM24.375 6.875C24.375 7.12223 24.3017 7.3639 24.1643 7.56946C24.027 7.77502 23.8318 7.93524 23.6034 8.02985C23.3749 8.12446 23.1236 8.14921 22.8811 8.10098C22.6387 8.05275 22.4159 7.9337 22.2411 7.75888C22.0663 7.58407 21.9472 7.36134 21.899 7.11886C21.8508 6.87639 21.8755 6.62505 21.9701 6.39665C22.0648 6.16824 22.225 5.97301 22.4305 5.83566C22.6361 5.69831 22.8778 5.625 23.125 5.625C23.4565 5.625 23.7745 5.7567 24.0089 5.99112C24.2433 6.22554 24.375 6.54348 24.375 6.875Z" fill="#333333"/>
<path d="M20.625 15H21.625H20.625ZM0 8.125H-1H0ZM0 21.875H1H0ZM8.125 30V31V30ZM1.25 21.875H0.25H1.25ZM15 7.125C13.4425 7.125 11.9199 7.58686 10.6249 8.45218L11.736 10.1151C12.7022 9.46956 13.838 9.125 15 9.125V7.125ZM10.6249 8.45218C9.32985 9.31749 8.32049 10.5474 7.72445 11.9864L9.57221 12.7517C10.0169 11.6782 10.7699 10.7607 11.736 10.1151L10.6249 8.45218ZM7.72445 11.9864C7.12841 13.4253 6.97246 15.0087 7.27632 16.5363L9.23789 16.1462C9.0112 15.0065 9.12754 13.8252 9.57221 12.7517L7.72445 11.9864ZM7.27632 16.5363C7.58018 18.0639 8.33019 19.4671 9.43153 20.5685L10.8457 19.1543C10.0241 18.3326 9.46458 17.2858 9.23789 16.1462L7.27632 16.5363ZM9.43153 20.5685C10.5329 21.6698 11.9361 22.4198 13.4637 22.7237L13.8538 20.7621C12.7142 20.5354 11.6674 19.9759 10.8457 19.1543L9.43153 20.5685ZM13.4637 22.7237C14.9913 23.0275 16.5747 22.8716 18.0136 22.2756L17.2483 20.4278C16.1747 20.8725 14.9935 20.9888 13.8538 20.7621L13.4637 22.7237ZM18.0136 22.2756C19.4526 21.6795 20.6825 20.6702 21.5478 19.3751L19.8849 18.264C19.2393 19.2301 18.3218 19.9831 17.2483 20.4278L18.0136 22.2756ZM21.5478 19.3751C22.4131 18.0801 22.875 16.5575 22.875 15H20.875C20.875 16.162 20.5304 17.2978 19.8849 18.264L21.5478 19.3751ZM22.875 15C22.875 12.9114 22.0453 10.9084 20.5685 9.43153L19.1543 10.8457C20.256 11.9475 20.875 13.4419 20.875 15H22.875ZM20.5685 9.43153C19.0916 7.95468 17.0886 7.125 15 7.125V9.125C16.5581 9.125 18.0525 9.74397 19.1543 10.8457L20.5685 9.43153ZM15 19.625C14.0853 19.625 13.1911 19.3537 12.4305 18.8455L11.3193 20.5085C12.4088 21.2365 13.6897 21.625 15 21.625V19.625ZM12.4305 18.8455C11.6699 18.3373 11.0771 17.615 10.7271 16.7699L8.8793 17.5353C9.38073 18.7458 10.2299 19.7805 11.3193 20.5085L12.4305 18.8455ZM10.7271 16.7699C10.377 15.9248 10.2854 14.9949 10.4639 14.0977L8.5023 13.7075C8.24667 14.9927 8.37787 16.3247 8.8793 17.5353L10.7271 16.7699ZM10.4639 14.0977C10.6423 13.2005 11.0828 12.3765 11.7296 11.7296L10.3154 10.3154C9.3889 11.2419 8.75792 12.4224 8.5023 13.7075L10.4639 14.0977ZM11.7296 11.7296C12.3765 11.0828 13.2005 10.6423 14.0977 10.4639L13.7075 8.5023C12.4224 8.75792 11.2419 9.3889 10.3154 10.3154L11.7296 11.7296ZM14.0977 10.4639C14.9949 10.2854 15.9248 10.377 16.7699 10.7271L17.5353 8.8793C16.3247 8.37787 14.9927 8.24667 13.7075 8.5023L14.0977 10.4639ZM16.7699 10.7271C17.615 11.0771 18.3373 11.6699 18.8455 12.4305L20.5085 11.3193C19.7805 10.2299 18.7458 9.38073 17.5353 8.8793L16.7699 10.7271ZM18.8455 12.4305C19.3537 13.1911 19.625 14.0853 19.625 15H21.625C21.625 13.6897 21.2365 12.4088 20.5085 11.3193L18.8455 12.4305ZM19.625 15C19.625 16.2266 19.1377 17.403 18.2704 18.2704L19.6846 19.6846C20.927 18.4422 21.625 16.7571 21.625 15H19.625ZM18.2704 18.2704C17.403 19.1377 16.2266 19.625 15 19.625V21.625C16.7571 21.625 18.4422 20.927 19.6846 19.6846L18.2704 18.2704ZM21.875 -1H8.125V1H21.875V-1ZM8.125 -1C5.7049 -1 3.38392 -0.0386192 1.67265 1.67265L3.08686 3.08686C4.42306 1.75067 6.23533 1 8.125 1V-1ZM1.67265 1.67265C-0.0386192 3.38392 -1 5.7049 -1 8.125H1C1 6.23533 1.75067 4.42306 3.08686 3.08686L1.67265 1.67265ZM-1 8.125V21.875H1V8.125H-1ZM-1 21.875C-1 23.0733 -0.763975 24.2599 -0.305401 25.367L1.54236 24.6016C1.18429 23.7372 1 22.8107 1 21.875H-1ZM-0.305401 25.367C0.153173 26.4741 0.825316 27.48 1.67265 28.3273L3.08686 26.9131C2.42525 26.2515 1.90042 25.4661 1.54236 24.6016L-0.305401 25.367ZM1.67265 28.3273C3.38392 30.0386 5.7049 31 8.125 31V29C6.23533 29 4.42306 28.2493 3.08686 26.9131L1.67265 28.3273ZM8.125 31H21.875V29H8.125V31ZM21.875 31C23.0733 31 24.2599 30.764 25.367 30.3054L24.6016 28.4576C23.7372 28.8157 22.8107 29 21.875 29V31ZM25.367 30.3054C26.4741 29.8468 27.48 29.1747 28.3273 28.3273L26.9131 26.9131C26.2515 27.5748 25.4661 28.0996 24.6016 28.4576L25.367 30.3054ZM28.3273 28.3273C29.1747 27.48 29.8468 26.4741 30.3054 25.367L28.4576 24.6016C28.0996 25.4661 27.5748 26.2515 26.9131 26.9131L28.3273 28.3273ZM30.3054 25.367C30.764 24.2599 31 23.0733 31 21.875H29C29 22.8107 28.8157 23.7372 28.4576 24.6016L30.3054 25.367ZM31 21.875V8.125H29V21.875H31ZM31 8.125C31 6.92669 30.764 5.74011 30.3054 4.63301L28.4576 5.39838C28.8157 6.26283 29 7.18933 29 8.125H31ZM30.3054 4.63301C29.8468 3.52592 29.1747 2.51998 28.3273 1.67265L26.9131 3.08686C27.5748 3.74848 28.0996 4.53394 28.4576 5.39838L30.3054 4.63301ZM28.3273 1.67265C27.48 0.825316 26.4741 0.153173 25.367 -0.305401L24.6016 1.54236C25.4661 1.90042 26.2515 2.42525 26.9131 3.08686L28.3273 1.67265ZM25.367 -0.305401C24.2599 -0.763975 23.0733 -1 21.875 -1V1C22.8107 1 23.7372 1.18429 24.6016 1.54236L25.367 -0.305401ZM27.75 21.875C27.75 23.4331 27.131 24.9275 26.0293 26.0293L27.4435 27.4435C28.9203 25.9666 29.75 23.9636 29.75 21.875H27.75ZM26.0293 26.0293C24.9275 27.131 23.4331 27.75 21.875 27.75V29.75C23.9636 29.75 25.9666 28.9203 27.4435 27.4435L26.0293 26.0293ZM21.875 27.75H8.125V29.75H21.875V27.75ZM8.125 27.75C6.56685 27.75 5.07252 27.131 3.97075 26.0293L2.55653 27.4435C4.03338 28.9203 6.03642 29.75 8.125 29.75V27.75ZM3.97075 26.0293C2.86897 24.9275 2.25 23.4331 2.25 21.875H0.25C0.25 23.9636 1.07969 25.9666 2.55653 27.4435L3.97075 26.0293ZM2.25 21.875V8.125H0.25V21.875H2.25ZM2.25 8.125C2.25 6.56685 2.86897 5.07252 3.97075 3.97075L2.55653 2.55653C1.07969 4.03338 0.25 6.03642 0.25 8.125H2.25ZM3.97075 3.97075C5.07252 2.86897 6.56685 2.25 8.125 2.25V0.25C6.03642 0.25 4.03338 1.07969 2.55653 2.55653L3.97075 3.97075ZM8.125 2.25H21.875V0.25H8.125V2.25ZM21.875 2.25C23.4331 2.25 24.9275 2.86897 26.0293 3.97075L27.4435 2.55653C25.9666 1.07969 23.9636 0.25 21.875 0.25V2.25ZM26.0293 3.97075C27.131 5.07252 27.75 6.56685 27.75 8.125H29.75C29.75 6.03642 28.9203 4.03338 27.4435 2.55653L26.0293 3.97075ZM27.75 8.125V21.875H29.75V8.125H27.75ZM23.375 6.875C23.375 6.92445 23.3603 6.97278 23.3329 7.01389L24.9958 8.12503C25.243 7.75502 25.375 7.32001 25.375 6.875H23.375ZM23.3329 7.01389C23.3054 7.055 23.2664 7.08705 23.2207 7.10597L23.986 8.95373C24.3972 8.78343 24.7486 8.49505 24.9958 8.12503L23.3329 7.01389ZM23.2207 7.10597C23.175 7.12489 23.1247 7.12984 23.0762 7.1202L22.686 9.08177C23.1225 9.16858 23.5749 9.12403 23.986 8.95373L23.2207 7.10597ZM23.0762 7.1202C23.0277 7.11055 22.9832 7.08674 22.9482 7.05178L21.534 8.46599C21.8487 8.78066 22.2496 8.99495 22.686 9.08177L23.0762 7.1202ZM22.9482 7.05178C22.9133 7.01681 22.8894 6.97227 22.8798 6.92377L20.9182 7.31395C21.005 7.75041 21.2193 8.15132 21.534 8.46599L22.9482 7.05178ZM22.8798 6.92377C22.8702 6.87528 22.8751 6.82501 22.894 6.77933L21.0463 6.01396C20.876 6.42509 20.8314 6.87749 20.9182 7.31395L22.8798 6.92377ZM22.894 6.77933C22.913 6.73365 22.945 6.6946 22.9861 6.66713L21.875 5.00419C21.505 5.25143 21.2166 5.60283 21.0463 6.01396L22.894 6.77933ZM22.9861 6.66713C23.0272 6.63966 23.0756 6.625 23.125 6.625V4.625C22.68 4.625 22.245 4.75696 21.875 5.00419L22.9861 6.66713ZM23.125 6.625C23.1913 6.625 23.2549 6.65134 23.3018 6.69822L24.716 5.28401C24.294 4.86205 23.7217 4.625 23.125 4.625V6.625ZM23.3018 6.69822C23.3487 6.74511 23.375 6.80869 23.375 6.875H25.375C25.375 6.27826 25.1379 5.70597 24.716 5.28401L23.3018 6.69822Z" fill="#333333" mask="url(#path-1-inside-1_1_5250)"/>
</svg>
