<svg width="17" height="16" viewBox="0 0 17 16" fill="none" xmlns="http://www.w3.org/2000/svg">
<path d="M16.8024 15.0396C15.602 12.983 13.6797 11.4405 11.405 10.7087C12.4947 10.0638 13.3414 9.08078 13.8151 7.91075C14.2888 6.74072 14.3632 5.44836 14.027 4.23216C13.6908 3.01597 12.9625 1.94321 11.9539 1.17865C10.9454 0.414082 9.71246 0 8.44444 0C7.17642 0 5.94346 0.414082 4.93494 1.17865C3.92642 1.94321 3.19811 3.01597 2.86188 4.23216C2.52565 5.44836 2.60009 6.74072 3.07377 7.91075C3.54745 9.08078 4.39417 10.0638 5.48388 10.7087C3.20926 11.4405 1.2869 12.9829 0.0864836 15.0394C0.0441745 15.1122 0.0166835 15.1925 0.00558014 15.2758C-0.00552321 15.3591 -2.1389e-05 15.4438 0.0217715 15.525C0.0435643 15.6062 0.0812214 15.6823 0.132593 15.749C0.183964 15.8158 0.248043 15.8718 0.321172 15.9138C0.394301 15.9559 0.475047 15.9833 0.558801 15.9943C0.642554 16.0054 0.727674 15.9999 0.809301 15.9782C0.890928 15.9565 0.967463 15.9191 1.03454 15.868C1.10161 15.8169 1.15791 15.7531 1.20022 15.6804C1.93463 14.4157 2.9907 13.3656 4.26231 12.6355C5.53392 11.9054 6.9763 11.5211 8.44453 11.5211C9.91276 11.5211 11.3551 11.9055 12.6267 12.6356C13.8983 13.3657 14.9544 14.4159 15.6887 15.6806C15.7311 15.7533 15.7874 15.817 15.8544 15.8681C15.9215 15.9192 15.998 15.9567 16.0797 15.9783C16.1613 16 16.2464 16.0055 16.3301 15.9944C16.4139 15.9834 16.4946 15.9561 16.5678 15.914C16.6409 15.8719 16.7049 15.8159 16.7563 15.7492C16.8077 15.6824 16.8453 15.6063 16.8671 15.5251C16.8889 15.4439 16.8944 15.3593 16.8833 15.276C16.8722 15.1926 16.8447 15.1123 16.8024 15.0396ZM3.94121 5.76181C3.94121 4.87586 4.20532 4.0098 4.70014 3.27316C5.19495 2.53651 5.89826 1.96237 6.72111 1.62333C7.54396 1.28429 8.4494 1.19558 9.32293 1.36842C10.1965 1.54126 10.9989 1.96789 11.6286 2.59435C12.2584 3.22082 12.6873 4.01898 12.8611 4.88791C13.0348 5.75684 12.9456 6.65752 12.6048 7.47603C12.264 8.29455 11.6868 8.99414 10.9462 9.48635C10.2057 9.97857 9.33505 10.2413 8.4444 10.2413C7.2505 10.2399 6.10589 9.76755 5.26167 8.92778C4.41745 8.08801 3.94257 6.94943 3.94121 5.76181Z" fill="#333333"/>
</svg>
