<svg width="25" height="23" viewBox="0 0 25 23" fill="none" xmlns="http://www.w3.org/2000/svg">
<path d="M8.5 1.25C9.30512 1.25 10.0773 1.57924 10.6466 2.16529C11.2159 2.75134 11.5357 3.5462 11.5357 4.375V5H5.46429V4.375C5.46429 3.5462 5.78412 2.75134 6.35343 2.16529C6.92273 1.57924 7.69488 1.25 8.5 1.25ZM12.75 5V4.375C12.75 3.21468 12.3022 2.10188 11.5052 1.28141C10.7082 0.460936 9.62717 0 8.5 0C7.37283 0 6.29183 0.460936 5.4948 1.28141C4.69777 2.10188 4.25 3.21468 4.25 4.375V5H0V17.5C0 18.163 0.255867 18.7989 0.711312 19.2678C1.16676 19.7366 1.78447 20 2.42857 20H14.5714C15.2155 20 15.8332 19.7366 16.2887 19.2678C16.7441 18.7989 17 18.163 17 17.5V5H12.75ZM1.21429 6.25H15.7857V17.5C15.7857 17.8315 15.6578 18.1495 15.4301 18.3839C15.2023 18.6183 14.8935 18.75 14.5714 18.75H2.42857C2.10652 18.75 1.79766 18.6183 1.56994 18.3839C1.34222 18.1495 1.21429 17.8315 1.21429 17.5V6.25Z" fill="#333333"/>
<rect x="15" y="12" width="3" height="8.2" fill="#FDFCFB"/>
<path d="M18.0002 13.1571L17.9292 13.0858L17.3914 12.5453L17.4553 12.4818L17.3914 12.5453C16.181 11.3288 13.9456 11.7448 13.1386 13.2852L18.0002 13.1571ZM18.0002 13.1571L18.071 13.0857M18.0002 13.1571L18.071 13.0857M18.071 13.0857L18.6088 12.5446C19.8192 11.328 22.0547 11.7447 22.8617 13.2853L22.9503 13.2389M18.071 13.0857L22.9503 13.2389M22.9503 13.2389L22.8617 13.2853C23.2371 14.0019 23.3298 15.0494 22.626 16.4085C21.9506 17.7099 20.5459 19.2793 18.0001 20.9958C15.4543 19.2793 14.0489 17.7099 13.3742 16.4085M22.9503 13.2389L13.3742 16.4085M18.0001 22.1191L17.9458 22.084C15.0628 20.2213 13.3889 18.4543 12.5602 16.8932C11.7302 15.3295 11.7477 13.9698 12.2535 12.9385C13.2587 10.8886 16.1772 10.1823 17.9349 11.7638L18.0001 22.1191ZM18.0001 22.1191L18.0544 22.084C20.9374 20.2211 22.6113 18.454 23.4399 16.8927C24.2699 15.3288 24.2523 13.969 23.7465 12.9377C22.7412 10.888 19.8231 10.182 18.0658 11.7641L18.0001 22.1191ZM13.3742 16.4085C12.6704 15.0502 12.7638 14.002 13.1385 13.2853L13.3742 16.4085Z" fill="#333333" stroke="#333333" stroke-width="0.2"/>
</svg>
