<svg width="39" height="27" viewBox="0 0 39 27" fill="none" xmlns="http://www.w3.org/2000/svg">
<path d="M36.8334 0H2.16769C1.59326 0.000611245 1.04254 0.225384 0.636354 0.625C0.230171 1.02462 0.00170469 1.56644 0.0010834 2.13158V7.95683C0.0010834 7.96038 0 7.96376 0 7.96731C0 7.97086 0.0010834 7.97406 0.0010834 7.97761V24.8684C0.00170469 25.4336 0.230171 25.9754 0.636354 26.375C1.04254 26.7746 1.59326 26.9994 2.16769 27H36.8334C37.4078 26.9994 37.9585 26.7746 38.3647 26.375C38.7709 25.9754 38.9994 25.4336 39 24.8684V2.13158C38.9994 1.56644 38.7709 1.02462 38.3647 0.625C37.9585 0.225384 37.4078 0.000611245 36.8334 0ZM2.16769 1.42105H36.8334C37.0249 1.42124 37.2085 1.49616 37.3439 1.62937C37.4793 1.76258 37.5554 1.94319 37.5556 2.13158V7.25678H1.44549V2.13158C1.44568 1.94319 1.52183 1.76258 1.65723 1.62937C1.79262 1.49616 1.97621 1.42124 2.16769 1.42105ZM36.8334 25.5789H2.16769C1.97621 25.5788 1.79262 25.5038 1.65723 25.3706C1.52183 25.2374 1.44568 25.0568 1.44549 24.8684V8.67783H37.5556V24.8684C37.5554 25.0568 37.4793 25.2374 37.3439 25.3706C37.2085 25.5038 37.0249 25.5788 36.8334 25.5789ZM33.2213 20.6053C33.2213 20.7937 33.1452 20.9744 33.0098 21.1077C32.8743 21.2409 32.6906 21.3158 32.4991 21.3158H26.7215C26.5299 21.3158 26.3462 21.2409 26.2108 21.1077C26.0754 20.9744 25.9993 20.7937 25.9993 20.6053C25.9993 20.4168 26.0754 20.2361 26.2108 20.1028C26.3462 19.9696 26.5299 19.8947 26.7215 19.8947H32.4991C32.6906 19.8947 32.8743 19.9696 33.0098 20.1028C33.1452 20.2361 33.2213 20.4168 33.2213 20.6053ZM21.6661 20.6053C21.6661 20.7937 21.59 20.9744 21.4545 21.1077C21.3191 21.2409 21.1354 21.3158 20.9439 21.3158H18.0551C17.8635 21.3158 17.6798 21.2409 17.5444 21.1077C17.4089 20.9744 17.3329 20.7937 17.3329 20.6053C17.3329 20.4168 17.4089 20.2361 17.5444 20.1028C17.6798 19.9696 17.8635 19.8947 18.0551 19.8947H20.9439C21.1354 19.8947 21.3191 19.9696 21.4545 20.1028C21.59 20.2361 21.6661 20.4168 21.6661 20.6053Z" fill="#333333"/>
</svg>
