<svg width="15" height="15" viewBox="0 0 15 15" fill="none" xmlns="http://www.w3.org/2000/svg">
<path d="M14.1116 3.46667L11.6658 1.00834C11.5042 0.847535 11.2854 0.757263 11.0574 0.757263C10.8294 0.757263 10.6107 0.847535 10.4491 1.00834L1.77827 9.66667L0.986608 13.0833C0.959298 13.2082 0.960234 13.3377 0.989348 13.4622C1.01846 13.5866 1.07502 13.7031 1.15488 13.8029C1.23475 13.9027 1.33591 13.9834 1.45097 14.0392C1.56604 14.0949 1.6921 14.1242 1.81994 14.125C1.87951 14.131 1.93954 14.131 1.99911 14.125L5.45327 13.3333L14.1116 4.68334C14.2724 4.52172 14.3627 4.303 14.3627 4.07501C14.3627 3.84702 14.2724 3.6283 14.1116 3.46667ZM5.03661 12.5833L1.79911 13.2625L2.53661 10.0875L9.02411 3.62501L11.5241 6.12501L5.03661 12.5833ZM12.0824 5.52084L9.58244 3.02084L11.0324 1.57917L13.4908 4.07917L12.0824 5.52084Z" fill="#333333"/>
</svg>
