<svg width="9" height="9" viewBox="0 0 9 9" fill="none" xmlns="http://www.w3.org/2000/svg">
<path d="M4.23633 1.33594H4.76367C4.81055 1.33594 4.83398 1.35937 4.83398 1.40625V7.59375C4.83398 7.64062 4.81055 7.66406 4.76367 7.66406H4.23633C4.18945 7.66406 4.16602 7.64062 4.16602 7.59375V1.40625C4.16602 1.35937 4.18945 1.33594 4.23633 1.33594Z" fill="#333333"/>
<path d="M1.54688 4.16602H7.45312C7.5 4.16602 7.52344 4.18945 7.52344 4.23633V4.76367C7.52344 4.81055 7.5 4.83398 7.45312 4.83398H1.54688C1.5 4.83398 1.47656 4.81055 1.47656 4.76367V4.23633C1.47656 4.18945 1.5 4.16602 1.54688 4.16602Z" fill="#333333"/>
</svg>
